

<?xml version="1.0" encoding="UTF-8"?>
<!DOCTYPE svg PUBLIC "-//W3C//DTD SVG 1.1//EN" "http://www.w3.org/Graphics/SVG/1.1/DTD/svg11.dtd">
<!-- Creator: CorelDRAW 2020 (64-Bit) -->
<svg xmlns="http://www.w3.org/2000/svg" xml:space="preserve" width="13mm" height="9mm" version="1.1" style="shape-rendering:geometricPrecision; text-rendering:geometricPrecision; image-rendering:optimizeQuality; fill-rule:evenodd; clip-rule:evenodd"
viewBox="0 0 1300 900"
 xmlns:xlink="http://www.w3.org/1999/xlink"
 xmlns:xodm="http://www.corel.com/coreldraw/odm/2003">
 <defs>
  <style type="text/css">
   <![CDATA[
    .fil0 {fill:#5A5590}
   ]]>
  </style>
 </defs>
 <g id="Capa_x0020_1">
  <metadata id="CorelCorpID_0Corel-Layer"/>
  <g id="_2505243401792">
   <path class="fil0" d="M171.43 705.16c8.1,-2.72 47.69,-25.4 57.54,-30.95 18.76,-10.59 37.95,-21.49 56.92,-31.19 93.1,-47.61 174.14,-75.82 284.96,-66.61 29.9,2.49 85.09,23.3 110.91,43.43 5.02,3.9 7.67,6.72 11.61,10.64 -4.69,-2.39 -8.87,-5.11 -14.61,-7.7 -16.3,-7.31 -35.93,-13.54 -53.49,-17.53 -24.69,-5.59 -72.42,-10.81 -45.14,24.81 13.2,17.23 38.8,26.4 60.91,33.04 107.46,32.27 260.83,34.6 366.59,-8.97l32.28 -15.01c-3.39,-27.38 -8.89,-38.62 -10.72,-74.49 -3.6,-70.29 11.46,-113.23 41.62,-172.06 3.55,-6.93 14.01,-22.68 15.47,-27.79 -6.33,2.23 -13.49,6.64 -19.57,9.81 -6.44,3.37 -12.75,7.12 -19.68,10.57 -14.04,7.01 -25.77,13.59 -40.21,19.32 -68.45,27.22 -133.51,25.76 -205.33,7.54 -31.76,-8.06 -62.54,-18.88 -93.24,-26.77l2.93 -44.31c-6.98,-1.68 -15.39,-4.99 -22.19,-7.35 -61.62,-21.38 -119.07,-26.26 -185.23,-16.92 -78.1,11.03 -149.78,35.15 -214.35,69.63 -12.24,6.54 -8.62,4.43 -16.9,28.79 -22.48,66.2 -47.64,133.87 -69.91,200.12 -3.47,10.33 -29.6,82.81 -31.17,89.95z"/>
   <path class="fil0" d="M14.64 886.3c8.33,1.25 40.51,7.89 45.97,7.06 11.77,-26.65 30.46,-77.6 41.29,-106.4 13.4,-35.66 26.51,-71.2 39.71,-107.91 26.24,-72.95 51.36,-145.42 76.68,-219.5 37.7,-110.29 74.44,-223.53 108.87,-335.12 3.49,-11.33 32.54,-104.54 33.84,-114.8l-12.95 -2.41c-6.01,19.37 -11.22,38.67 -17.21,58.31 -38.46,126.1 -93.28,269.51 -139.59,391.45 -13.86,36.51 -29.22,73.19 -42.84,108.96 -26.11,68.6 -60.04,147.16 -88.59,214.9 -4.99,11.85 -45.45,102.69 -45.18,105.46z"/>
   <g>
    <path class="fil0" d="M597.22 48.15l0.53 214.58c0.03,15.08 0.4,13.03 -19.09,11.77 -13.96,-0.91 -9.62,8.3 -8.47,9.79 2.46,3.23 13.14,2.37 18.28,2.82 6.83,0.58 13.04,1.28 19.54,2.09 11.62,1.45 24.11,3.78 35.72,6.42 6.5,1.47 29.82,8.78 33.54,8.42 8.81,-10.62 -7.17,-12.81 -15.16,-15.49 -12.09,-4.06 -10.01,-3.55 -10.01,-25.82 0,-24.2 0,-48.4 0,-72.61 0.04,-7.81 4.36,-7.3 12.49,-4.33 17.89,6.52 22.95,17.19 31.82,32.65 14.16,24.71 50.17,90.5 63.4,108.75 6.78,9.35 14.29,8.77 29.57,13.73 7.58,2.45 27.3,8.91 35.04,8.28 8.75,-9.62 -3.95,-11.24 -12.12,-13.33 -14.84,-3.8 -21.03,-18.76 -28.4,-31.91l-43.73 -77.09c-2.6,-4.52 -10.01,-15.03 -8.53,-20.94 11.83,-7.79 28.02,8.13 49.78,-16.25 10.62,-11.9 15.05,-33.64 10.19,-53.48 -8.26,-33.74 -37.03,-56.86 -60.71,-72.14 -48.35,-31.21 -97.79,-40.97 -158.77,-41.68 -5.68,-0.07 -9.6,1.99 -7.96,8.38 1.88,7.35 17.82,2.73 28.48,5.12 5.7,1.28 4.55,5.96 4.57,12.27zm58.28 7.96c-6.19,2.84 -3.91,15.17 -3.91,22.24 0,22.52 -1.05,60.88 0.04,79.91 0.53,9.08 5.57,10.43 12.2,13.58 6.53,3.11 11.31,6.03 18.61,8.39 15.39,4.99 32.97,3.59 43.37,-5.36 9.24,-7.96 11.96,-25.57 10.94,-41.82 -3.24,-51.86 -73.67,-80.41 -81.25,-76.94z"/>
    <path class="fil0" d="M838.18 335.27c5.99,2.39 11.69,6.42 17.45,9.58 19.02,10.44 42.04,16.1 63.97,18.27 38.9,3.84 80.63,-4.22 107.8,-27 8.1,-6.77 20.46,-18.89 26.54,-28.13 2.85,-4.35 5.95,-14.57 7.32,-20.2 3.3,-13.52 5.71,-35.49 1.61,-49 -15.44,-50.84 -116.04,-21.02 -157.4,-61.31 -4.55,-4.45 -9.01,-7.22 -11.16,-15.9 -5.85,-23.69 14.22,-37.78 35.17,-45.81 13.75,-5.27 29.55,-7.75 45.79,-8.62 7.95,-0.43 49.25,-1.84 53.97,0.43 6.17,2.99 12.37,28.63 18.41,37.05l11.04 0.31 0.75 -46.24c-0.13,-13.88 -8.96,-9.29 -36.9,-8.15 -52.8,2.16 -141.76,-0.93 -170.64,47.24 -8.43,14.04 -12.35,32.39 -6.26,51.35 5.75,17.9 15.04,25.28 27.55,34.49 36.13,26.63 51.55,24.3 92.9,31.9 16.02,2.93 37.32,7.5 42.5,19.52 6.92,16.02 -5.63,37.51 -12.99,45.58 -10.53,11.57 -19.02,18.86 -40.83,22 -19.45,2.78 -37.5,2.99 -55.03,-3.61 -12.83,-4.83 -29.93,-18.19 -36.21,-26.61 -4.4,-5.87 -7.22,-13.25 -9.6,-21.52 -1.46,-5.06 -4.74,-21.76 -12.52,-15.16 -4.72,4.02 -2.92,20.45 -2.97,27.8 -0.08,10.48 -0.49,21.29 -0.26,31.74z"/>
    <path class="fil0" d="M287.43 365.48c5.16,0.73 18.09,-8.38 22.96,-11.23 10.73,-6.24 67.06,-33.8 68.12,-36.11 0.5,-4.62 -0.45,-5.07 -2.73,-8.13 -5.18,-0.48 -17.34,7.85 -23.94,11.42 -13.77,7.45 -16.5,-2.27 -11.83,-14.23 6.63,-17.02 12.42,-34.59 18.65,-51.51 10.23,-27.73 3.39,-20.39 37.61,-32.61 8.55,-3.05 47.88,-18.14 53.64,-17.43 8.28,14.43 16.56,31.69 24.62,46.97 4.41,8.33 7.98,20.09 -0.13,26.55 -8.13,6.47 -30.26,4.81 -32.17,13.87 -2.33,11.14 14.09,4.67 17.91,3.73 30.7,-7.46 66.6,-9.52 98.17,-10.36 5.87,-0.16 10.96,-1.18 8.87,-8.79 -1.45,-5.33 -8.32,-3.95 -13.77,-3.93 -15.06,0.03 -17.49,-0.78 -23.12,-13.18l-89.51 -199.2c-3.54,-7.99 -6.96,-19.57 -14.78,-21.38 -12.47,-2.88 -14.45,10.02 -17.74,18.89 -26.08,70.41 -50.73,142.16 -76.35,212.48 -6.59,18.11 -12.47,35.43 -19.19,53.44 -1.69,4.54 -3.1,8.57 -4.76,13.35 -2.16,6.19 -3.55,6.51 -8.2,9.59 -11.57,7.63 -21.15,11.26 -12.33,17.8zm150.55 -179.73c0.3,-4.95 -17.21,-35.87 -21.28,-44.13 -1.86,-3.78 -5.05,-12.27 -8.75,-13.5 -4.55,10.11 -9.11,22.86 -13.26,33.84 -4.38,11.59 -8.97,22.55 -13.21,34.22 -2.65,7.3 -4.7,15.51 7.12,11.06 8.36,-3.13 46.63,-18.93 49.38,-21.49z"/>
   </g>
  </g>
 </g>
</svg>
